<svg width="529" height="529" viewBox="0 0 529 529" fill="none" xmlns="http://www.w3.org/2000/svg">
<rect width="529" height="529" rx="80" fill="url(#paint0_linear_142_1246)"/>
<path d="M458.457 188.021C459.838 188.022 460.957 189.141 460.957 190.521C460.957 191.902 459.838 193.021 458.457 193.021H359.631C349.414 193.021 341.131 201.304 341.131 211.521V444.304C341.131 445.684 340.011 446.804 338.631 446.804C337.25 446.804 336.131 445.684 336.131 444.304V211.521C336.131 198.543 346.652 188.021 359.631 188.021H458.457ZM417.762 82C422.756 82.0002 426.805 86.0495 426.805 91.0439C426.804 96.0382 422.756 100.087 417.762 100.087C413.634 100.087 410.155 97.3215 409.07 93.543H330.57C327.907 93.543 325.343 94.5553 323.398 96.374L273.241 143.276C271.118 145.262 269.913 148.039 269.913 150.945V252.651C270.085 253.038 270.085 253.482 269.913 253.869V313.377C269.913 315.588 270.612 317.732 271.893 319.511L300.298 290.91C302.251 288.943 303.348 286.283 303.348 283.511V184.117C303.348 179.95 305.026 175.958 308.004 173.042L327.439 154.012C330.336 151.175 334.229 149.587 338.283 149.587H374.973C375.585 147.127 377.808 145.305 380.457 145.305L380.748 145.312C383.734 145.464 386.109 147.933 386.109 150.957L386.102 151.248C385.95 154.234 383.481 156.609 380.457 156.609L380.166 156.602C378.436 156.514 376.912 155.647 375.936 154.347V154.587H338.283C335.537 154.587 332.9 155.664 330.938 157.585L311.502 176.615C309.485 178.59 308.348 181.294 308.348 184.117V283.511C308.348 287.603 306.73 291.53 303.846 294.434L275.191 323.284L299.305 350.193C301.852 353.036 303.261 356.72 303.261 360.537V446H298.261V360.537C298.261 357.951 297.307 355.456 295.581 353.53L271.662 326.838L262.028 336.538L281.637 357.332C284.174 360.023 285.587 363.582 285.587 367.28V400.915C288.123 401.472 290.022 403.731 290.022 406.435L290.015 406.726C289.863 409.712 287.394 412.087 284.37 412.087L284.079 412.079C281.189 411.933 278.872 409.616 278.726 406.726L278.718 406.435C278.718 403.936 280.339 401.818 282.587 401.071V367.28C282.587 364.347 281.466 361.525 279.454 359.391L259.913 338.668L251.372 347.268L267.952 365.289C268.513 365.899 268.474 366.847 267.864 367.408C267.255 367.969 266.306 367.929 265.745 367.319L249.257 349.397L240.453 358.262L258.507 376.988C261.292 379.877 262.849 383.733 262.849 387.746V443.739H257.849V387.746C257.849 385.028 256.794 382.415 254.907 380.458L236.929 361.811L229.441 369.351C227.488 371.318 226.392 373.978 226.392 376.75V415.251C227.948 416.258 228.978 418.008 228.979 420L228.971 420.291C228.819 423.277 226.35 425.652 223.326 425.652L223.035 425.645C220.145 425.498 217.828 423.181 217.682 420.291L217.674 420C217.674 417.558 219.223 415.477 221.392 414.687V376.75C221.392 372.658 223.01 368.731 225.894 365.827L233.458 358.21L212.989 336.979C210.204 334.091 208.648 330.234 208.647 326.222V295.898C208.647 291.878 210.21 288.014 213.004 285.124L221.262 276.582V185.167C221.262 182.117 220.05 179.192 217.894 177.035L197.812 156.955C195.656 154.799 192.731 153.587 189.682 153.587H150.775C150.118 155.98 147.928 157.739 145.326 157.739L145.035 157.731C142.145 157.585 139.828 155.268 139.682 152.378L139.674 152.087C139.674 148.966 142.205 146.435 145.326 146.435L145.617 146.442C148.09 146.568 150.144 148.284 150.776 150.587H189.682C193.527 150.587 197.215 152.115 199.935 154.834L220.015 174.914C222.734 177.633 224.262 181.322 224.262 185.167V273.479L243.993 253.069V159.004C243.993 155.888 242.729 152.906 240.489 150.739L198.284 109.908C196.14 107.834 193.272 106.674 190.288 106.674H148.327C147.502 108.774 145.458 110.262 143.065 110.262L142.774 110.254C139.885 110.107 137.568 107.79 137.421 104.9L137.413 104.609C137.413 101.488 139.944 98.9572 143.065 98.957L143.356 98.9648C146.028 99.1004 148.209 101.091 148.64 103.674H190.288C194.051 103.674 197.666 105.137 200.37 107.753L242.575 148.583C245.399 151.315 246.993 155.075 246.993 159.004V249.966L251.196 245.619C253.089 243.661 254.147 241.045 254.147 238.321V149.535C254.147 146.845 253.115 144.258 251.263 142.307L207.012 95.6846C205.029 93.5959 202.275 92.4131 199.396 92.4131H120.354C119.693 96.7577 115.942 100.087 111.413 100.087C106.419 100.087 102.37 96.0382 102.37 91.0439C102.37 86.0495 106.419 82.0002 111.413 82C115.116 82 118.298 84.2265 119.696 87.4131H199.396C203.646 87.4131 207.711 89.159 210.638 92.2422L254.89 138.864C257.623 141.744 259.147 145.564 259.147 149.535V238.321C259.147 242.341 257.585 246.204 254.791 249.095L246.993 257.16V272.69L264.913 254.771V150.945C264.913 146.654 266.692 142.555 269.826 139.624L319.983 92.7217C322.855 90.0368 326.639 88.543 330.57 88.543H409.07C410.155 84.7649 413.635 82 417.762 82ZM170.674 188.021C183.652 188.021 194.174 198.543 194.174 211.521V442.043C194.174 443.424 193.055 444.543 191.674 444.543C190.293 444.543 189.174 443.424 189.174 442.043V211.521C189.174 201.304 180.891 193.021 170.674 193.021H72.4131C71.0325 193.021 69.9131 191.902 69.9131 190.521C69.9132 189.141 71.0326 188.022 72.4131 188.021H170.674ZM223.326 417.348C221.862 417.348 220.674 418.535 220.674 420C220.674 421.465 221.862 422.652 223.326 422.652C224.791 422.652 225.978 421.465 225.979 420C225.978 418.535 224.791 417.348 223.326 417.348ZM407.879 162.269C410.865 162.42 413.24 164.889 413.24 167.913L413.232 168.204C413.081 171.19 410.612 173.565 407.588 173.565L407.297 173.558C405.223 173.452 403.443 172.229 402.55 170.479H344.263C341.222 170.479 338.317 171.737 336.237 173.955L326.649 184.183C324.738 186.221 323.674 188.912 323.674 191.706V288.473C323.674 292.883 321.733 297.071 318.366 299.921L294.114 320.452C291.293 322.841 291.282 327.188 294.091 329.591L312.207 345.089C315.538 347.939 317.457 352.103 317.457 356.487V402.098C319.884 402.733 321.675 404.94 321.675 407.565L321.667 407.856C321.515 410.843 319.046 413.218 316.022 413.218L315.731 413.21C312.841 413.063 310.525 410.746 310.378 407.856L310.37 407.565C310.37 405.328 311.671 403.394 313.557 402.479H313.457V356.487C313.457 353.272 312.05 350.218 309.607 348.128L291.491 332.631C286.809 328.626 286.828 321.38 291.53 317.399L315.781 296.868C318.25 294.778 319.674 291.707 319.674 288.473V191.706C319.674 187.895 321.125 184.227 323.731 181.447L333.319 171.22C336.155 168.195 340.117 166.479 344.263 166.479H402.12C402.755 164.052 404.962 162.261 407.588 162.261L407.879 162.269ZM316.022 404.913C314.558 404.913 313.37 406.101 313.37 407.565C313.37 409.03 314.558 410.218 316.022 410.218C317.487 410.218 318.675 409.03 318.675 407.565C318.675 406.101 317.487 404.913 316.022 404.913ZM284.37 403.782C282.905 403.782 281.718 404.97 281.718 406.435C281.718 407.899 282.905 409.087 284.37 409.087C285.835 409.087 287.022 407.899 287.022 406.435C287.022 404.97 285.835 403.782 284.37 403.782ZM216.599 288.6C214.706 290.558 213.647 293.175 213.647 295.898V326.222C213.648 328.94 214.702 331.552 216.589 333.509L236.981 354.661L245.868 345.714L230.178 328.66C227.715 325.984 226.349 322.48 226.349 318.843V299.341C226.349 295.495 227.877 291.807 230.596 289.088L243.993 275.69V260.263L216.599 288.6ZM232.717 291.209C230.56 293.366 229.349 296.291 229.349 299.341V318.843C229.349 321.727 230.433 324.506 232.386 326.629L247.983 343.584L256.481 335.028L247.943 325.974C245.406 323.283 243.993 319.724 243.993 316.025V279.933L232.717 291.209ZM246.993 276.933V316.025C246.993 318.958 248.114 321.781 250.126 323.915L258.597 332.897L268.335 323.092C266.126 320.345 264.913 316.918 264.913 313.377V259.013L246.993 276.933ZM387.53 98.9648C390.517 99.1164 392.892 101.585 392.892 104.609L392.884 104.9C392.732 107.886 390.263 110.262 387.239 110.262L386.948 110.254C384.834 110.147 383.028 108.876 382.152 107.07V107.174H341.714C338.817 107.174 336.037 108.317 333.978 110.354L287.937 155.91C285.849 157.976 284.674 160.792 284.674 163.729V278.88C287.101 279.515 288.891 281.722 288.892 284.348L288.884 284.639C288.732 287.625 286.263 290 283.239 290L282.948 289.992C280.058 289.846 277.741 287.529 277.595 284.639L277.587 284.348C277.587 282.15 278.842 280.247 280.674 279.312V163.729C280.674 159.724 282.276 155.884 285.123 153.066L331.164 107.512C333.972 104.733 337.763 103.174 341.714 103.174H381.771C382.407 100.747 384.614 98.9571 387.239 98.957L387.53 98.9648ZM283.239 281.695C281.775 281.695 280.587 282.883 280.587 284.348C280.587 285.812 281.775 287 283.239 287C284.704 287 285.892 285.812 285.892 284.348C285.891 282.883 284.704 281.695 283.239 281.695ZM120.748 162.269C123.221 162.394 125.275 164.11 125.907 166.413H186.929C190.725 166.413 194.371 167.902 197.082 170.561L207.479 180.758C210.26 183.485 211.826 187.216 211.826 191.11V259.868C213.926 260.693 215.414 262.738 215.414 265.131L215.406 265.422C215.255 268.408 212.785 270.783 209.762 270.783L209.471 270.775C206.581 270.629 204.264 268.312 204.117 265.422L204.109 265.131C204.109 262.328 206.15 260.001 208.826 259.556V191.11C208.826 188.022 207.584 185.062 205.379 182.899L194.981 172.702C192.832 170.594 189.94 169.413 186.929 169.413H125.906C125.249 171.806 123.059 173.565 120.457 173.565L120.166 173.558C117.276 173.411 114.959 171.094 114.812 168.204L114.805 167.913C114.805 164.792 117.336 162.261 120.457 162.261L120.748 162.269ZM209.762 262.479C208.297 262.479 207.109 263.666 207.109 265.131C207.11 266.595 208.297 267.783 209.762 267.783C211.226 267.783 212.414 266.595 212.414 265.131C212.414 263.666 211.226 262.479 209.762 262.479ZM456.195 131.435C457.3 131.435 458.195 132.33 458.195 133.435C458.195 134.539 457.3 135.435 456.195 135.435H339.329C336.494 135.435 333.768 136.529 331.721 138.489L299.748 169.105C297.581 171.18 296.356 174.051 296.355 177.051V241.388C298.46 242.21 299.952 244.256 299.952 246.652L299.944 246.943C299.793 249.93 297.324 252.305 294.3 252.305L294.009 252.297C291.119 252.15 288.802 249.833 288.655 246.943L288.647 246.652C288.647 244.214 290.192 242.135 292.355 241.343V177.051C292.356 172.96 294.027 169.046 296.981 166.217L328.955 135.601C331.747 132.927 335.464 131.435 339.329 131.435H456.195ZM189.304 132C193.239 132 197.016 133.547 199.821 136.306L231.301 167.263C234.168 170.082 235.782 173.936 235.782 177.957V240.742C237.767 241.619 239.153 243.604 239.153 245.913L239.146 246.204C238.994 249.19 236.525 251.565 233.501 251.565L233.21 251.558C230.32 251.411 228.003 249.094 227.856 246.204L227.849 245.913C227.849 243.391 229.501 241.254 231.782 240.526V177.957C231.782 175.008 230.598 172.182 228.495 170.114L197.017 139.157C194.959 137.134 192.189 136 189.304 136H71C69.8956 136 69 135.104 69 134C69 132.896 69.8956 132 71 132H189.304ZM294.3 244C292.835 244 291.647 245.188 291.647 246.652C291.648 248.117 292.835 249.305 294.3 249.305C295.764 249.305 296.952 248.117 296.952 246.652C296.952 245.188 295.764 244 294.3 244ZM233.146 243.286C231.849 243.459 230.849 244.569 230.849 245.913C230.849 247.378 232.036 248.565 233.501 248.565C234.965 248.565 236.153 247.378 236.153 245.913C236.153 244.683 235.315 243.65 234.179 243.351C234.051 243.376 233.918 243.392 233.782 243.392C233.56 243.392 233.346 243.353 233.146 243.286ZM120.457 165.261C118.992 165.261 117.805 166.448 117.805 167.913C117.805 169.378 118.992 170.565 120.457 170.565C121.922 170.565 123.109 169.378 123.109 167.913C123.109 166.448 121.922 165.261 120.457 165.261ZM407.588 165.261C406.123 165.261 404.936 166.448 404.936 167.913C404.936 169.378 406.123 170.565 407.588 170.565C409.052 170.565 410.24 169.378 410.24 167.913C410.24 166.449 409.052 165.261 407.588 165.261ZM145.326 149.435C143.862 149.435 142.674 150.622 142.674 152.087C142.674 153.552 143.862 154.739 145.326 154.739C146.791 154.739 147.978 153.552 147.979 152.087C147.978 150.622 146.791 149.435 145.326 149.435ZM380.457 148.305C378.992 148.305 377.805 149.492 377.805 150.957C377.805 152.421 378.993 153.609 380.457 153.609C381.922 153.609 383.109 152.421 383.109 150.957C383.109 149.492 381.922 148.305 380.457 148.305ZM111.705 111.399C114.178 111.525 116.229 113.24 116.862 115.543H188.283C189.111 115.543 189.783 116.215 189.783 117.043C189.783 117.871 189.111 118.543 188.283 118.543H116.863C116.206 120.937 114.016 122.696 111.414 122.696L111.123 122.688C108.233 122.542 105.916 120.225 105.77 117.335L105.762 117.044C105.762 113.922 108.292 111.392 111.414 111.392L111.705 111.399ZM414.661 111.399C417.647 111.551 420.022 114.02 420.022 117.044L420.015 117.335C419.863 120.321 417.394 122.696 414.37 122.696L414.079 122.688C411.606 122.563 409.553 120.847 408.921 118.543H339.762C338.933 118.543 338.262 117.871 338.262 117.043C338.262 116.215 338.933 115.543 339.762 115.543H408.921C409.578 113.15 411.768 111.392 414.37 111.392L414.661 111.399ZM111.414 114.392C109.949 114.392 108.762 115.579 108.762 117.044C108.762 118.509 109.949 119.696 111.414 119.696C112.878 119.696 114.066 118.508 114.066 117.044C114.066 115.579 112.879 114.392 111.414 114.392ZM414.37 114.392C412.905 114.392 411.718 115.579 411.718 117.044C411.718 118.508 412.906 119.696 414.37 119.696C415.835 119.696 417.022 118.508 417.022 117.044C417.022 115.579 415.835 114.392 414.37 114.392ZM143.065 101.957C141.601 101.957 140.413 103.145 140.413 104.609C140.413 106.074 141.601 107.262 143.065 107.262C144.53 107.262 145.717 106.074 145.718 104.609C145.718 103.145 144.53 101.957 143.065 101.957ZM387.239 101.957C385.775 101.957 384.587 103.145 384.587 104.609C384.587 106.074 385.775 107.262 387.239 107.262C388.704 107.262 389.891 106.074 389.892 104.609C389.892 103.145 388.704 101.957 387.239 101.957Z" fill="url(#paint1_linear_142_1246)"/>
<defs>
<linearGradient id="paint0_linear_142_1246" x1="264.5" y1="0" x2="264.5" y2="529" gradientUnits="userSpaceOnUse">
<stop stop-color="#1C5982"/>
<stop offset="1" stop-color="#0F173E"/>
</linearGradient>
<linearGradient id="paint1_linear_142_1246" x1="460.957" y1="264.402" x2="69" y2="264.402" gradientUnits="userSpaceOnUse">
<stop stop-color="#5AE2A7"/>
<stop offset="1" stop-color="#3BABCA"/>
</linearGradient>
</defs>
</svg>
